<svg xmlns="http://www.w3.org/2000/svg" viewBox="0 0 15 15"><defs><style>.cls-1{fill:#979797;fill-rule:evenodd}</style></defs><path class="cls-1" d="M5.419 8.27a.349.349 0 0 0-.348-.34H3.856a.349.349 0 0 0-.348.34v1.19a.342.342 0 0 0 .348.34h1.215a.343.343 0 0 0 .348-.34V8.27zm3.036 0a.349.349 0 0 0-.347-.34H6.892a.349.349 0 0 0-.348.34v1.19a.343.343 0 0 0 .348.34h1.216a.343.343 0 0 0 .347-.34V8.27zm3.037 0a.349.349 0 0 0-.348-.34H9.929a.349.349 0 0 0-.348.34v1.19a.343.343 0 0 0 .348.34h1.215a.343.343 0 0 0 .348-.34V8.27zm-6.073 2.97a.349.349 0 0 0-.348-.34H3.856a.349.349 0 0 0-.348.34v1.19a.342.342 0 0 0 .348.34h1.215a.343.343 0 0 0 .348-.34v-1.19zm3.036 0a.349.349 0 0 0-.347-.34H6.892a.349.349 0 0 0-.348.34v1.19a.343.343 0 0 0 .348.34h1.216a.343.343 0 0 0 .347-.34v-1.19zm3.037 0a.349.349 0 0 0-.348-.34H9.929a.349.349 0 0 0-.348.34v1.19a.343.343 0 0 0 .348.34h1.215a.343.343 0 0 0 .348-.34v-1.19zm2.173-9.57v1.81a1.507 1.507 0 0 1-1.519 1.49h-.959A1.514 1.514 0 0 1 9.66 3.48V1.66H5.34v1.82a1.514 1.514 0 0 1-1.528 1.49h-.958a1.507 1.507 0 0 1-1.519-1.49V1.67A1.36 1.36 0 0 0 0 3.01v10.64A1.366 1.366 0 0 0 1.375 15h12.25A1.367 1.367 0 0 0 15 13.65V3.01a1.36 1.36 0 0 0-1.335-1.34zm-.445 11.31a.59.59 0 0 1-.6.59H2.348a.589.589 0 0 1-.594-.59V7.49a.587.587 0 0 1 .594-.58h10.277a.588.588 0 0 1 .6.58v5.49zM2.851 3.99H3.8a.516.516 0 0 0 .521-.51V.51A.516.516 0 0 0 3.8 0h-.947a.516.516 0 0 0-.521.51v2.97a.516.516 0 0 0 .519.51zm8.324 0h.948a.516.516 0 0 0 .521-.51V.51a.516.516 0 0 0-.521-.51h-.948a.517.517 0 0 0-.521.51v2.97a.517.517 0 0 0 .521.51z"/></svg>