<svg xmlns="http://www.w3.org/2000/svg" viewBox="0 0 19.87 37">
  <defs>
    <style>
      .cls-1 {
        fill: #369ef6;
        fill-rule: evenodd;
      }
    </style>
  </defs>
  <path class="cls-1" d="M1509.84,1432.01a0.734,0.734,0,0,0,.52-0.21l18.43-17.8a0.682,0.682,0,0,0,.22-0.5,0.721,0.721,0,0,0-.22-0.51l-18.43-17.79a0.769,0.769,0,0,0-1.04,0,0.7,0.7,0,0,0,0,1.01l17.91,17.29-17.91,17.29a0.7,0.7,0,0,0,0,1.01A0.751,0.751,0,0,0,1509.84,1432.01Z" transform="translate(-1509.13 -1395)"/>
</svg>
