<svg xmlns="http://www.w3.org/2000/svg" viewBox="0 0 15 15">
  <defs>
    <style>
      .cls-1 {
        fill: #979797;
        fill-rule: evenodd;
      }
    </style>
  </defs>
  <path class="cls-1" d="M590.419,2335.27a0.349,0.349,0,0,0-.348-0.34h-1.215a0.349,0.349,0,0,0-.348.34v1.19a0.342,0.342,0,0,0,.348.34h1.215a0.343,0.343,0,0,0,.348-0.34v-1.19h0Zm3.036,0a0.349,0.349,0,0,0-.347-0.34h-1.216a0.349,0.349,0,0,0-.348.34v1.19a0.343,0.343,0,0,0,.348.34h1.216a0.343,0.343,0,0,0,.347-0.34v-1.19Zm3.037,0a0.349,0.349,0,0,0-.348-0.34h-1.215a0.349,0.349,0,0,0-.348.34v1.19a0.343,0.343,0,0,0,.348.34h1.215a0.343,0.343,0,0,0,.348-0.34v-1.19Zm-6.073,2.97a0.349,0.349,0,0,0-.348-0.34h-1.215a0.349,0.349,0,0,0-.348.34v1.19a0.342,0.342,0,0,0,.348.34h1.215a0.343,0.343,0,0,0,.348-0.34v-1.19h0Zm3.036,0a0.349,0.349,0,0,0-.347-0.34h-1.216a0.349,0.349,0,0,0-.348.34v1.19a0.343,0.343,0,0,0,.348.34h1.216a0.343,0.343,0,0,0,.347-0.34v-1.19Zm3.037,0a0.349,0.349,0,0,0-.348-0.34h-1.215a0.349,0.349,0,0,0-.348.34v1.19a0.343,0.343,0,0,0,.348.34h1.215a0.343,0.343,0,0,0,.348-0.34v-1.19h0Zm2.173-9.57v1.81a1.507,1.507,0,0,1-1.519,1.49h-0.959a1.514,1.514,0,0,1-1.527-1.49v-1.82h-4.32v1.82a1.514,1.514,0,0,1-1.528,1.49h-0.958a1.507,1.507,0,0,1-1.519-1.49v-1.81a1.36,1.36,0,0,0-1.335,1.34v10.64a1.366,1.366,0,0,0,1.375,1.35h12.25a1.367,1.367,0,0,0,1.375-1.35v-10.64A1.36,1.36,0,0,0,598.665,2328.67Zm-0.445,11.31a0.59,0.59,0,0,1-.6.59H587.348a0.589,0.589,0,0,1-.594-0.59v-5.49a0.587,0.587,0,0,1,.594-0.58h10.277a0.588,0.588,0,0,1,.6.58v5.49h0Zm-10.369-8.99H588.8a0.516,0.516,0,0,0,.521-0.51v-2.97a0.516,0.516,0,0,0-.521-0.51h-0.947a0.516,0.516,0,0,0-.521.51v2.97A0.516,0.516,0,0,0,587.851,2330.99Zm8.324,0h0.948a0.516,0.516,0,0,0,.521-0.51v-2.97a0.516,0.516,0,0,0-.521-0.51h-0.948a0.517,0.517,0,0,0-.521.51v2.97A0.517,0.517,0,0,0,596.175,2330.99Z" transform="translate(-585 -2327)"/>
</svg>
