<svg xmlns="http://www.w3.org/2000/svg"  viewBox="0 0 58 43">
  <defs>
    <style>
      .cls-1 {
  
        fill-rule: evenodd;
      }
    </style>
  </defs>
  <path class="cls-1" d="M983.42,721.986a6.055,6.055,0,0,1-12.109,0H957.629a6.055,6.055,0,0,1-12.109,0H935.209v-2.4h10.815a6.07,6.07,0,0,1,11.1,0h9.606V692.876h11.2L988,704.943v17.043h-4.58Zm-31.846-3.613a3.613,3.613,0,1,0,3.638,3.612A3.628,3.628,0,0,0,951.574,718.373Zm25.791,7.226a3.613,3.613,0,1,0-3.637-3.614A3.63,3.63,0,0,0,977.365,725.6Zm8.218-19.791L976.8,695.276h-7.65v24.309h2.668a6.07,6.07,0,0,1,11.1,0h2.668V705.808ZM971,697.849h5.313l6.6,8.164H971v-8.164Zm2.416,5.764h4.457l-2.719-3.364H973.42v3.364Zm-36.434,2.652a11.039,11.039,0,1,1,12.688-17.236h14.7v26H936.986v-8.767ZM941.1,687.4a8.625,8.625,0,1,0,8.683,8.625A8.664,8.664,0,0,0,941.1,687.4Zm-1.7,25.231h22.553v-21.2H951.19a10.911,10.911,0,0,1,1.011,4.6,11.11,11.11,0,0,1-12.8,10.9v5.71Zm0.489-15.917v-7.489h2.417v6.11l3.16,1.828-1.217,2.074Z" transform="translate(-930 -685)"/>
</svg>
