<svg xmlns="http://www.w3.org/2000/svg"  viewBox="0 0 23 30">
  <defs>
    <style>
      .cls-1 {
	  fill: #5b5b5b;
        fill-rule: evenodd;
      }
    </style>
  </defs>
  <path class="cls-1" d="M1274.2,65l-0.05,0h0a0.187,0.187,0,0,1-.05-0.01h0a0.485,0.485,0,0,1-.2-0.113h0l-5.78-6.048h0a0.474,0.474,0,0,1-.11-0.187h0c0-.021-0.01-0.041-0.01-0.062h0V35.43a0.426,0.426,0,0,1,.42-0.43h22.16a0.426,0.426,0,0,1,.42.43V64.57a0.426,0.426,0,0,1-.42.43H1274.2Zm0.43-.861h15.52V35.86h-21.31v22.23h5.36a0.429,0.429,0,0,1,.43.43v5.618h0Zm-5.21-5.188,4.36,4.559V58.952h-4.36Zm18.35-2.672h-16.46a0.43,0.43,0,0,1,0-.861h16.46A0.43,0.43,0,0,1,1287.77,56.279Zm0-2.209h-16.46a0.43,0.43,0,0,1,0-.861h16.46A0.43,0.43,0,0,1,1287.77,54.071ZM1284.52,51a0.4,0.4,0,0,1-.27-0.1,0.4,0.4,0,0,1-.15-0.318l-0.02-.713-2.9-.461a0.431,0.431,0,0,1-.29-0.188,0.457,0.457,0,0,1-.05-0.344l1.1-4.412a4.083,4.083,0,0,1-1.21-2.59,3.964,3.964,0,1,1,7.9-.652h0a4.08,4.08,0,0,1-1.18,3.213l1.15,5.533a0.445,0.445,0,0,1-.07.337,0.424,0.424,0,0,1-.29.179l-3.66.514A0.379,0.379,0,0,1,1284.52,51Zm0.31-5.419,0.1,4.5,2.75-.385-0.97-4.677a3.907,3.907,0,0,1-1.71.555C1284.95,45.571,1284.89,45.574,1284.83,45.576Zm-3.06,3.047,2.23,0.355,0.06-.241-0.08-3.222a3.979,3.979,0,0,1-1.31-.5Zm2.91-10.26c-0.08,0-.16,0-0.25.011a3.175,3.175,0,0,0-2.86,3.423,3.121,3.121,0,1,0,6.22-.513h0A3.147,3.147,0,0,0,1284.68,38.364Zm-6.58,6.828h-6.79a0.43,0.43,0,0,1,0-.861h6.79A0.43,0.43,0,0,1,1278.1,45.191Zm0-2.6h-6.79a0.43,0.43,0,0,1,0-.861h6.79A0.43,0.43,0,0,1,1278.1,42.587Zm0-2.763h-6.79a0.43,0.43,0,0,1,0-.861h6.79A0.43,0.43,0,0,1,1278.1,39.824Z" transform="translate(-1268 -35)"/>
</svg>
