<svg xmlns="http://www.w3.org/2000/svg"  viewBox="0 0 18 16">
  <defs>
    <style>
      .cls-1 {
        fill-rule: evenodd;
      }
    </style>
  </defs>
  <path class="cls-1" d="M405.105,121.827h1.775v3.661l-1.767-1.5Zm1.942,6.218-6.9-6.2-7.359,6.241c-1.231,1.044-1.8,0-1.8,0L400.148,120l8.859,8.046S408.472,129.076,407.047,128.045Zm-0.691.559v6.877a0.466,0.466,0,0,1-.476.5h-4.445l0.008-3.718a0.584,0.584,0,0,0-.66-0.615H398.9a0.531,0.531,0,0,0-.532.615L398.36,136l-4.54.006a0.376,0.376,0,0,1-.378-0.4V128.6l6.651-5.587Z" transform="translate(-391 -120)"/>
</svg>
