<svg xmlns="http://www.w3.org/2000/svg" viewBox="0 0 42 42">
  <defs>
    <style>
      .cls-1 {

        fill-rule: evenodd;
      }
    </style>
  </defs>
  <path class="cls-1" d="M1330.86,694.642a0.7,0.7,0,0,0-.59-1.278,5.821,5.821,0,0,0-1.34.865,0.7,0.7,0,0,0,.46,1.235,0.7,0.7,0,0,0,.46-0.172A4.048,4.048,0,0,1,1330.86,694.642Zm2.44-.38h1.4a0.7,0.7,0,0,0,0-1.4h-1.4A0.7,0.7,0,0,0,1333.3,694.262Zm4.2,0h1.4a0.7,0.7,0,0,0,0-1.4h-1.4A0.7,0.7,0,0,0,1337.5,694.262Zm-2.8,8.434h-1.4a0.7,0.7,0,0,0,0,1.406h1.4A0.7,0.7,0,0,0,1334.7,702.7Zm8.4,0h-1.4a0.7,0.7,0,0,0,0,1.406h1.4A0.7,0.7,0,0,0,1343.1,702.7Zm-4.2,0h-1.4a0.7,0.7,0,0,0,0,1.406h1.4A0.7,0.7,0,0,0,1338.9,702.7Zm-8.04-.379a4.048,4.048,0,0,1-1.01-.65,0.7,0.7,0,0,0-.92,1.062,5.826,5.826,0,0,0,1.34.866,0.744,0.744,0,0,0,.29.064A0.7,0.7,0,0,0,1330.86,702.317Zm16.44,0.379h-1.4a0.7,0.7,0,0,0,0,1.406h1.4A0.7,0.7,0,0,0,1347.3,702.7Zm12.6,0h-1.4a0.7,0.7,0,0,0,0,1.406h1.4A0.7,0.7,0,0,0,1359.9,702.7Zm4.2,0h-1.4a0.7,0.7,0,0,0,0,1.406h1.4A0.7,0.7,0,0,0,1364.1,702.7Zm-12.6,0h-1.4a0.7,0.7,0,0,0,0,1.406h1.4A0.7,0.7,0,0,0,1351.5,702.7Zm4.2,0h-1.4a0.7,0.7,0,0,0,0,1.406h1.4A0.7,0.7,0,0,0,1355.7,702.7ZM1330.86,723.4a4.048,4.048,0,0,1-1.01-.65,0.7,0.7,0,0,0-.92,1.062,5.826,5.826,0,0,0,1.34.866,0.744,0.744,0,0,0,.29.064A0.7,0.7,0,0,0,1330.86,723.4Zm8.04,0.379h-1.4a0.7,0.7,0,0,0,0,1.406h1.4A0.7,0.7,0,0,0,1338.9,723.781Zm-4.2,0h-1.4a0.7,0.7,0,0,0,0,1.406h1.4A0.7,0.7,0,0,0,1334.7,723.781Zm16.8,0h-1.4a0.7,0.7,0,0,0,0,1.406h1.4A0.7,0.7,0,0,0,1351.5,723.781Zm2.1,0.7a0.7,0.7,0,0,0,.7.7h1.4a0.7,0.7,0,0,0,0-1.406h-1.4A0.7,0.7,0,0,0,1353.6,724.484Zm4.9,0.7h1.4a0.7,0.7,0,0,0,0-1.406h-1.4A0.7,0.7,0,0,0,1358.5,725.187Zm-11.2-1.406h-1.4a0.7,0.7,0,0,0,0,1.406h1.4A0.7,0.7,0,0,0,1347.3,723.781Zm15.4,1.406h1.4a0.7,0.7,0,0,0,0-1.406h-1.4A0.7,0.7,0,0,0,1362.7,725.187Zm-19.6-1.406h-1.4a0.7,0.7,0,0,0,0,1.406h1.4A0.7,0.7,0,0,0,1343.1,723.781Zm14.7-10.542a2.8,2.8,0,1,0,2.8-2.811A2.811,2.811,0,0,0,1357.8,713.239Zm2.8-1.406a1.406,1.406,0,1,1-1.4,1.406A1.406,1.406,0,0,1,1360.6,711.833Zm-3.54-21.788-3.81-3.82a0.789,0.789,0,0,0-1.12,0l-1.43,1.438-1.44-1.438a0.789,0.789,0,0,0-1.12,0l-3.81,3.82H1332.6a5.617,5.617,0,0,0-5.6,5.623v27.3a5.026,5.026,0,0,0,5.01,5.026H1369V690.045h-11.94Zm-4.37-2.4,2.39,2.4,9.8,9.84h-3.77l-7.89-7.919a0.75,0.75,0,0,0-1.06.007l-7.88,7.912h-3.78l11.19-11.228h0Zm6.44,12.238h-12.87l6.43-6.461Zm-10.43-12.238,1.01,1.01-11.19,11.228h-2.01l9.8-9.84Zm-16.1,3.8h10.33l-1.44,1.449a0.665,0.665,0,0,0-.44.444l-6.52,6.541h-1.93A4.217,4.217,0,0,1,1332.6,691.451Zm35,25.3h-7.7a3.514,3.514,0,0,1,0-7.028h7.7v7.028Zm0-14.057h-0.7a0.7,0.7,0,0,0,0,1.406h0.7v4.217h-7.7a4.92,4.92,0,0,0,0,9.84h7.7v5.622h-0.7a0.7,0.7,0,0,0,0,1.406h0.7v1.406h-35.59a3.62,3.62,0,0,1-3.61-3.621v-1.549a0.709,0.709,0,0,0,.17-0.671,4.307,4.307,0,0,1-.17-1.188V700.338a0.709,0.709,0,0,0,.17-0.671l-0.03-.138c0.06,0.067.13,0.132,0.19,0.2a2.238,2.238,0,0,0,.19.169,2.055,2.055,0,0,0,.24.2,2.487,2.487,0,0,0,.2.151c0.08,0.061.17,0.119,0.26,0.175,0.07,0.045.14,0.089,0.21,0.131,0.09,0.052.19,0.1,0.28,0.149s0.15,0.075.23,0.109c0.1,0.044.2,0.083,0.3,0.122,0.08,0.029.15,0.058,0.23,0.084,0.11,0.035.22,0.064,0.33,0.094,0.08,0.019.15,0.041,0.23,0.058,0.12,0.027.25,0.045,0.38,0.063,0.06,0.009.13,0.023,0.19,0.03a5.744,5.744,0,0,0,.6.033h35v1.4Zm-0.74-2.811-5.6-5.623h0.04a0.7,0.7,0,0,0,0-1.4h-1.4c-0.01,0-.02.006-0.03,0.007l-1.41-1.413h9.14v8.434h-0.74Zm-1.36-7.028h-1.4a0.7,0.7,0,0,0,0,1.4h1.4A0.7,0.7,0,0,0,1365.5,692.857Z" transform="translate(-1327 -686)"/>
</svg>
