<svg xmlns="http://www.w3.org/2000/svg" viewBox="0 0 25 30">
  <defs>
    <style>
      .cls-1 {
	  fill: #434343;
        fill-rule: evenodd;
      }
    </style>
  </defs>
  <path class="cls-1" d="M741,63.121l-1.178-4.638h-4.643a3.347,3.347,0,0,1-3.369-3.317V49.447a8.113,8.113,0,0,1,1.688-4.81,5.96,5.96,0,0,0-.614-7.81,6.205,6.205,0,0,0-8.664-.129,6,6,0,0,0-.794,7.834,9.044,9.044,0,0,1,1.764,5.191v5.444a3.347,3.347,0,0,1-3.369,3.317h-4.643L716,63.121h1.557V65h21.886V63.121H741ZM725.162,45.743h6.628a9.273,9.273,0,0,0-.412,1h-5.809A10.287,10.287,0,0,0,725.162,45.743Zm-1.94-4.667a5.116,5.116,0,0,1,1.618-3.744,5.3,5.3,0,0,1,8.936,3.622,5.076,5.076,0,0,1-1,3.165q-0.27.366-.5,0.744H724.7q-0.247-.422-0.538-0.834A5.1,5.1,0,0,1,723.222,41.076Zm2.863,14.09V49.722a8.86,8.86,0,0,0-.257-2.1h5.3a8.075,8.075,0,0,0-.211,1.825v5.719a4.168,4.168,0,0,0,1.656,3.317h-8.142A4.171,4.171,0,0,0,726.085,55.166Zm-8.209,4.2h21.248l0.73,2.877H717.146Zm20.673,4.756h-20.1v-1h20.1v1Zm-6.6-20.587a4.088,4.088,0,0,0,.221-4.558l-0.77.448A3.2,3.2,0,0,1,731.868,41a3.241,3.241,0,0,1-.637,2.017Zm-0.787-5.71a4.338,4.338,0,0,0-1.6-.806l-0.23.851a3.419,3.419,0,0,1,1.261.638Z" transform="translate(-716 -35)"/>
</svg>
