<svg xmlns="http://www.w3.org/2000/svg" viewBox="0 0 40 42">
  <defs>
    <style>
      .cls-1 {
        fill-rule: evenodd;
      }
    </style>
  </defs>
  <path class="cls-1" d="M584.044,698.7c-0.007-.015-0.007-0.031-0.015-0.045s-0.022-.022-0.031-0.035a19.076,19.076,0,0,0-2.529-3.367l1.524-1.5,1,0.989,3.008-2.97L584,688.8l-3.01,2.969,1,0.991-1.523,1.5a19.213,19.213,0,0,0-3.411-2.5,0.347,0.347,0,0,0-.036-0.031c-0.014-.009-0.03-0.008-0.045-0.016a19.2,19.2,0,0,0-7.286-2.383V688.5h1.064a1.75,1.75,0,1,0,0-3.5H564.37a1.75,1.75,0,1,0,0,3.5h1.063v0.809a19.8,19.8,0,0,0-2.286.375,0.7,0.7,0,0,0-.533.838,0.709,0.709,0,0,0,.85.526,18.161,18.161,0,0,1,1.972-.334l0.76-.058c0.233-.018.447-0.03,0.656-0.04V692a0.709,0.709,0,0,0,1.418,0v-1.379a17.776,17.776,0,0,1,7.416,1.991l-0.7,1.2a0.7,0.7,0,0,0,.26.956,0.715,0.715,0,0,0,.969-0.256l0.7-1.192a17.757,17.757,0,0,1,5.512,5.441l-1.208.688a0.7,0.7,0,0,0-.258.956,0.715,0.715,0,0,0,.969.256l1.21-.69a17.2,17.2,0,0,1,2.021,7.433h-1.4a0.7,0.7,0,1,0,0,1.4h1.4a17.2,17.2,0,0,1-2.021,7.433l-1.21-.69a0.714,0.714,0,0,0-.969.256,0.7,0.7,0,0,0,.259.957l1.208,0.688a17.743,17.743,0,0,1-5.512,5.44l-0.7-1.192a0.713,0.713,0,0,0-.969-0.256,0.694,0.694,0,0,0-.259.956l0.7,1.2a17.775,17.775,0,0,1-7.415,1.991V724.2a0.71,0.71,0,0,0-1.419,0v1.383a18.112,18.112,0,0,1-3.387-.432,0.707,0.707,0,0,0-.85.526,0.7,0.7,0,0,0,.533.838,19.41,19.41,0,0,0,4.3.485c0.035,0,.068,0,0.1,0,0,0,.009,0,0.013,0s0.011,0,.016,0a19.208,19.208,0,0,0,9.375-2.5,0.427,0.427,0,0,0,.067-0.027c0.014-.008.022-0.022,0.035-0.031a19.16,19.16,0,0,0,6.932-6.833,0.593,0.593,0,0,0,.042-0.054,0.4,0.4,0,0,0,.015-0.045A18.616,18.616,0,0,0,584.044,698.7ZM584,690.776l1,0.989-1,.991-1-.991Zm-17.143-1.561V687.1H564.37a0.35,0.35,0,1,1,0-.7h6.382a0.35,0.35,0,1,1,0,.7H568.27v2.115c-0.247-.01-0.482-0.015-0.709-0.015h-0.116c-0.116,0-.232.008-0.349,0.01C567.014,689.212,566.937,689.211,566.852,689.215Zm-5.674,5.585h-3.546a0.7,0.7,0,1,0,0,1.4h3.546A0.7,0.7,0,1,0,561.178,694.8Zm0,4.9h-7.092a0.7,0.7,0,1,0,0,1.4h7.092A0.7,0.7,0,1,0,561.178,699.7Zm0,4.9H550.54a0.7,0.7,0,1,0,0,1.4h10.638A0.7,0.7,0,1,0,561.178,704.6Zm0,4.9H547.7a0.7,0.7,0,1,0,0,1.4h13.475A0.7,0.7,0,1,0,561.178,709.5Zm0,4.9h-9.22a0.7,0.7,0,1,0,0,1.4h9.22A0.7,0.7,0,1,0,561.178,714.4Zm0,4.9h-4.964a0.7,0.7,0,1,0,0,1.4h4.964A0.7,0.7,0,1,0,561.178,719.3Zm6.94-7.049a2.532,2.532,0,0,0,1.411-1.571l3.3-10.738a0.693,0.693,0,0,0-.367-0.83,0.717,0.717,0,0,0-.89.232l-6.523,9.2a2.473,2.473,0,0,0,.956,3.67,2.533,2.533,0,0,0,1.926.105C568,712.3,568.057,712.277,568.118,712.251Zm-2.073-2a1.086,1.086,0,0,1,.164-0.9l3.98-5.615-2.014,6.549a1.113,1.113,0,0,1-.62.69,1.128,1.128,0,0,1-.926-0.014A1.086,1.086,0,0,1,566.045,710.248Z" transform="translate(-547 -685)"/>
</svg>
